<?xml version="1.0" encoding="UTF-8"?>
<svg id="Layer_4" data-name="Layer 4" xmlns="http://www.w3.org/2000/svg" viewBox="0 0 420 420">
  <defs>
    <style>
      .cls-1 {
        fill: #fff;
      }

      .cls-2 {
        fill: none;
        stroke: #ed1c24;
        stroke-miterlimit: 10;
        stroke-width: 20px;
      }
    </style>
  </defs>
  <g>
    <path class="cls-1" d="m153.75,85.69h47.09v258.38h-47.09v-110.15h-53.23v110.15h-47.09V85.69h47.09v112.19h53.23v-112.19Z"/>
    <path class="cls-1" d="m280.68,143.01h43.4c29.48,0,44.22,13.51,44.22,40.54v73.29h-87.22v41.36c0,4.37.75,7.31,2.25,8.8,1.5,1.5,4.57,2.25,9.21,2.25h18.84c4.36,0,7.37-.75,9.01-2.25,1.64-1.5,2.46-4.43,2.46-8.8v-15.15h45.04v20.47c0,27.02-14.88,40.54-44.63,40.54h-42.58c-29.76,0-44.63-13.51-44.63-40.54v-119.97c0-27.02,14.88-40.54,44.63-40.54Zm.41,83.94h42.58v-38.49c0-4.36-.82-7.3-2.46-8.8-1.64-1.5-4.65-2.25-9.01-2.25h-19.65c-4.37,0-7.37.75-9.01,2.25-1.64,1.5-2.46,4.44-2.46,8.8v38.49Z"/>
  </g>
  <rect class="cls-2" x="11" y="10" width="400" height="400"/>
</svg>