<?xml version="1.0" encoding="UTF-8"?>
<svg xmlns="http://www.w3.org/2000/svg" xmlns:xlink="http://www.w3.org/1999/xlink" viewBox="0 0 1740 420">
  <defs>
    <style>
      .cls-1 {
        fill: #1eb4d4;
      }

      .cls-2 {
        fill: #1b2738;
      }

      .cls-3 {
        clip-path: url(#clippath);
      }

      .cls-4, .cls-5, .cls-6 {
        fill: none;
      }

      .cls-5 {
        stroke: #000;
      }

      .cls-5, .cls-6 {
        stroke-miterlimit: 10;
        stroke-width: 20px;
      }

      .cls-6 {
        stroke: #ed1c24;
      }
    </style>
    <clipPath id="clippath">
      <rect class="cls-4" x="909.53" y="87.71" width="800" height="235.79"/>
    </clipPath>
  </defs>
  <g id="Layer_2" data-name="Layer 2">
    <rect class="cls-6" x="91" y="87" width="246" height="246" transform="translate(-85.81 212.83) rotate(-45)"/>
  </g>
  <g id="Layer_1" data-name="Layer 1">
    <g class="cls-3">
      <g>
        <path class="cls-1" d="m1139.06,168.55c6.89-20.96,2.75-62.76-10.61-78.2-1.75-2.02-5.01-1.74-6.46.5l-16.45,25.22c-4.07,5.05-11.39,6.21-16.91,2.68-17.85-11.41-39.17-18.04-62.08-18.04s-44.23,6.63-62.08,18.04c-5.49,3.52-12.82,2.34-16.91-2.68l-16.45-25.22c-1.45-2.23-4.71-2.5-6.46-.5-13.35,15.46-17.5,57.27-10.61,78.2,2.29,6.97,2.91,14.33,1.56,21.48-1.35,7.1-2.69,15.67-2.69,21.64,0,61.29,50.88,110.96,113.61,110.96s113.61-49.69,113.61-110.96c0-5.97-1.35-14.54-2.69-21.64-1.32-7.15-.67-14.51,1.62-21.48Zm-112.54,129.31c-48.51,0-87.96-38.55-87.96-85.93,0-1.55.05-3.08.13-4.6,1.75-32.29,21.83-59.87,50.24-73.02,11.39-5.31,24.15-8.26,37.61-8.26s26.2,2.94,37.61,8.28c28.4,13.15,48.49,40.75,50.24,73.02.08,1.53.13,3.08.13,4.6-.03,47.35-39.5,85.9-88.01,85.9Z"/>
        <path class="cls-1" d="m1064.64,245.01l-22.48-38.07-19.28-31.74c-.46-.76-1.29-1.21-2.18-1.21h-18.42c-.92,0-1.75.47-2.21,1.26-.46.76-.43,1.71.03,2.47l18.44,30.26-24.74,36.86c-.51.76-.54,1.73-.11,2.52.43.79,1.29,1.29,2.23,1.29h18.55c.86,0,1.67-.42,2.13-1.13l13.38-20.4,12.01,20.33c.46.76,1.29,1.24,2.18,1.24h18.28c.91,0,1.75-.47,2.18-1.24.46-.74.46-1.68,0-2.45Z"/>
        <path class="cls-2" d="m1244.92,148.15h23.45v125.58h-23.45v-53.51h-26.49v53.53h-23.45v-125.6h23.45v54.53h26.49v-54.53Z"/>
        <path class="cls-2" d="m1340.71,273.75l-4.9-26.08h-28.13l-4.5,26.08h-23.45l25.87-125.58h31.58l27.11,125.58h-23.58Zm-29.96-43.41h21.81l-11.2-60.11-10.61,60.11Z"/>
        <path class="cls-2" d="m1416.53,250.85v-26.87c0-2.13-.4-3.55-1.21-4.29-.81-.74-2.32-1.1-4.5-1.1h-16.5c-14,0-21-6.63-21-19.9v-30.82c0-13.15,7.32-19.69,21.99-19.69h22.43c14.67,0,22,6.57,22,19.69v17.51h-23.64v-14.33c0-2.13-.4-3.55-1.21-4.29-.81-.74-2.32-1.1-4.5-1.1h-7.75c-2.32,0-3.88.37-4.68,1.1-.81.74-1.21,2.16-1.21,4.29v25.27c0,2.13.4,3.55,1.21,4.29.81.74,2.37,1.1,4.68,1.1h16.1c14.27,0,21.4,6.49,21.4,19.51v32.84c0,13.15-7.4,19.69-22.21,19.69h-22.02c-14.81,0-22.21-6.57-22.21-19.69v-17.33h23.42v14.12c0,2.13.4,3.55,1.21,4.29.81.73,2.37,1.1,4.68,1.1h7.75c2.18,0,3.66-.37,4.5-1.1.83-.74,1.26-2.16,1.26-4.29Z"/>
        <path class="cls-2" d="m1502.71,148.15h23.42v105.88c0,13.15-7.4,19.69-22.21,19.69h-24.85c-14.81,0-22.21-6.57-22.21-19.69v-105.88h23.45v102.7c0,2.13.4,3.55,1.21,4.29.81.74,2.32,1.1,4.5,1.1h10.79c2.32,0,3.88-.37,4.68-1.1.81-.74,1.21-2.16,1.21-4.29v-102.7Z"/>
        <path class="cls-2" d="m1568.94,224.79v48.96h-23.42v-125.6h47.28c14.81,0,22.21,6.57,22.21,19.69v37.23c0,10.89-4.95,17.25-14.89,19.12l21.4,49.56h-25.28l-19.57-48.96h-7.73Zm0-59.13v42.2h16.91c2.18,0,3.66-.37,4.5-1.1.81-.74,1.21-2.16,1.21-4.29v-31.42c0-2.13-.4-3.55-1.21-4.29-.81-.74-2.32-1.1-4.5-1.1h-16.91Z"/>
        <path class="cls-2" d="m1685.92,273.75l-4.9-26.08h-28.13l-4.5,26.08h-23.42l25.87-125.58h31.58l27.11,125.58h-23.61Zm-29.94-43.41h21.81l-11.2-60.11-10.61,60.11Z"/>
      </g>
    </g>
    <g>
      <path d="m188.19,146.1h23v126.2h-23v-53.8h-26v53.8h-23v-126.2h23v54.8h26v-54.8Z"/>
      <path d="m250.19,174.1h21.2c14.4,0,21.6,6.6,21.6,19.8v35.8h-42.6v20.2c0,2.13.37,3.57,1.1,4.3.73.73,2.23,1.1,4.5,1.1h9.2c2.13,0,3.6-.37,4.4-1.1.8-.73,1.2-2.17,1.2-4.3v-7.4h22v10c0,13.2-7.27,19.8-21.8,19.8h-20.8c-14.53,0-21.8-6.6-21.8-19.8v-58.6c0-13.2,7.27-19.8,21.8-19.8Zm.2,41h20.8v-18.8c0-2.13-.4-3.57-1.2-4.3-.8-.73-2.27-1.1-4.4-1.1h-9.6c-2.13,0-3.6.37-4.4,1.1-.8.73-1.2,2.17-1.2,4.3v18.8Z"/>
      <path d="m394.79,272.3h-22.6v-133.8h22.6v133.8Z"/>
      <path d="m411.38,158.1v-19.8h23.8v19.8h-23.8Zm23.2,114.2h-22.6v-98.2h22.6v98.2Z"/>
      <path d="m491.78,174.1h22.8v98.2h-22.4v-9.8c-1.6,6.53-6.33,9.8-14.2,9.8h-6.2c-13.6,0-20.4-6.6-20.4-19.8v-78.4h22.6v75.2c0,2.13.4,3.57,1.2,4.3.8.73,2.27,1.1,4.4,1.1h6c4.13,0,6.2-2.2,6.2-6.6v-74Z"/>
      <path d="m608.58,174.1h6.2c13.6,0,20.4,6.6,20.4,19.8v78.4h-22.6v-75.2c0-2.13-.4-3.57-1.2-4.3-.8-.73-2.27-1.1-4.4-1.1h-6c-4.13,0-6.2,2.2-6.2,6.6v74h-22.8v-75.2c0-2.13-.4-3.57-1.2-4.3-.8-.73-2.27-1.1-4.4-1.1h-6c-4.13,0-6.2,2.2-6.2,6.6v74h-22.6v-98.2h22.4v9c1.87-6,6.6-9,14.2-9h6c9.87,0,16.13,3.33,18.8,10,1.87-6.67,7.07-10,15.6-10Z"/>
      <path d="m723.58,156.3h-9c-2.13,0-3.6.37-4.4,1.1-.8.73-1.2,2.17-1.2,4.3v12.4h14.6v17.6h-14.6v80.6h-22.6v-80.6h-10v-17.6h10v-15.8c0-13.2,7.2-19.8,21.6-19.8h15.6v17.8Z"/>
      <path d="m753.57,174.1h22.6c14.13,0,21.2,6.6,21.2,19.8v58.6c0,13.2-7.07,19.8-21.2,19.8h-22.6c-14.27,0-21.4-6.6-21.4-19.8v-58.6c0-13.2,7.13-19.8,21.4-19.8Zm21.6,75.8v-53.4c0-2.13-.4-3.57-1.2-4.3-.8-.73-2.33-1.1-4.6-1.1h-9.2c-2.27,0-3.8.37-4.6,1.1-.8.73-1.2,2.17-1.2,4.3v53.4c0,2.13.4,3.57,1.2,4.3.8.73,2.33,1.1,4.6,1.1h9.2c2.27,0,3.8-.37,4.6-1.1.8-.73,1.2-2.17,1.2-4.3Z"/>
      <path d="m853.57,173.7h3.6v19.6h-8.4c-8.4,0-12.6,4.8-12.6,14.4v64.6h-22.6v-98.2h22.4v12.6c1.07-3.87,3.13-7,6.2-9.4,3.07-2.4,6.87-3.6,11.4-3.6Z"/>
    </g>
    <rect class="cls-5" x="91" y="87" width="246" height="246"/>
  </g>
</svg>