<?xml version="1.0" encoding="UTF-8"?>
<svg xmlns="http://www.w3.org/2000/svg" xmlns:xlink="http://www.w3.org/1999/xlink" viewBox="0 0 1740 420">
  <defs>
    <style>
      .cls-1 {
        stroke: #fff;
      }

      .cls-1, .cls-2, .cls-3 {
        fill: none;
      }

      .cls-1, .cls-3 {
        stroke-miterlimit: 10;
        stroke-width: 20px;
      }

      .cls-4 {
        fill: #fff;
        font-family: Teko-Medium, Teko;
        font-size: 200px;
        font-weight: 500;
      }

      .cls-5 {
        fill: #1eb4d4;
      }

      .cls-6 {
        clip-path: url(#clippath);
      }

      .cls-3 {
        stroke: #ed1c24;
      }

      .cls-7 {
        fill: #f8fcff;
      }
    </style>
    <clipPath id="clippath">
      <rect class="cls-2" x="909.88" y="87.21" width="800.12" height="235.83"/>
    </clipPath>
  </defs>
  <g id="Layer_2" data-name="Layer 2">
    <rect class="cls-3" x="91" y="87" width="246" height="246" transform="translate(-85.81 212.83) rotate(-45)"/>
  </g>
  <g id="Layer_4" data-name="Layer 4">
    <g class="cls-6">
      <g>
        <path class="cls-5" d="m1139.44,168.07c6.89-20.96,2.75-62.77-10.61-78.21-1.75-2.02-5.01-1.74-6.46.5l-16.45,25.22c-4.07,5.05-11.39,6.21-16.91,2.68-17.85-11.41-39.18-18.04-62.09-18.04s-44.24,6.63-62.09,18.04c-5.49,3.52-12.82,2.34-16.91-2.68l-16.45-25.22c-1.45-2.24-4.71-2.5-6.46-.5-13.36,15.46-17.5,57.28-10.61,78.21,2.29,6.97,2.91,14.33,1.56,21.48-1.35,7.1-2.69,15.67-2.69,21.64,0,61.3,50.89,110.98,113.63,110.98s113.63-49.7,113.63-110.98c0-5.97-1.35-14.54-2.69-21.64-1.32-7.15-.67-14.52,1.62-21.48Zm-112.56,129.33c-48.52,0-87.97-38.55-87.97-85.94,0-1.55.05-3.08.13-4.6,1.75-32.29,21.84-59.88,50.25-73.03,11.39-5.31,24.15-8.26,37.62-8.26s26.2,2.95,37.62,8.28c28.41,13.15,48.49,40.76,50.25,73.03.08,1.53.13,3.08.13,4.6-.03,47.36-39.5,85.91-88.02,85.91Z"/>
        <path class="cls-5" d="m1065.01,244.54l-22.48-38.08-19.28-31.74c-.46-.76-1.29-1.21-2.18-1.21h-18.42c-.92,0-1.75.47-2.21,1.26-.46.76-.43,1.71.03,2.47l18.44,30.27-24.75,36.87c-.51.76-.54,1.74-.11,2.52.43.79,1.29,1.29,2.24,1.29h18.55c.86,0,1.67-.42,2.13-1.13l13.38-20.41,12.01,20.33c.46.76,1.29,1.24,2.18,1.24h18.28c.91,0,1.75-.47,2.18-1.24.46-.74.46-1.68,0-2.45Z"/>
        <path class="cls-7" d="m1245.32,147.66h23.45v125.6h-23.45v-53.51h-26.5v53.54h-23.45v-125.62h23.45v54.54h26.5v-54.54Z"/>
        <path class="cls-7" d="m1341.13,273.28l-4.9-26.09h-28.14l-4.5,26.09h-23.45l25.88-125.6h31.58l27.12,125.6h-23.59Zm-29.97-43.42h21.81l-11.2-60.12-10.61,60.12Z"/>
        <path class="cls-7" d="m1416.96,250.38v-26.88c0-2.13-.4-3.55-1.21-4.29-.81-.74-2.32-1.1-4.5-1.1h-16.51c-14,0-21-6.63-21-19.91v-30.82c0-13.15,7.32-19.7,22-19.7h22.43c14.67,0,22,6.57,22,19.7v17.51h-23.64v-14.33c0-2.13-.4-3.55-1.21-4.29-.81-.74-2.32-1.1-4.5-1.1h-7.75c-2.32,0-3.88.37-4.69,1.1-.81.74-1.21,2.16-1.21,4.29v25.27c0,2.13.4,3.55,1.21,4.29.81.74,2.37,1.1,4.69,1.1h16.1c14.27,0,21.41,6.5,21.41,19.51v32.85c0,13.15-7.4,19.7-22.22,19.7h-22.02c-14.81,0-22.22-6.57-22.22-19.7v-17.33h23.43v14.12c0,2.13.4,3.55,1.21,4.29.81.74,2.37,1.1,4.69,1.1h7.75c2.18,0,3.66-.37,4.5-1.1.83-.74,1.26-2.16,1.26-4.29Z"/>
        <path class="cls-7" d="m1503.15,147.66h23.43v105.9c0,13.15-7.4,19.7-22.21,19.7h-24.85c-14.81,0-22.22-6.57-22.22-19.7v-105.9h23.45v102.72c0,2.13.4,3.55,1.21,4.29.81.74,2.32,1.1,4.5,1.1h10.79c2.32,0,3.88-.37,4.69-1.1.81-.74,1.21-2.16,1.21-4.29v-102.72Z"/>
        <path class="cls-7" d="m1569.39,224.32v48.97h-23.43v-125.62h47.29c14.81,0,22.21,6.57,22.21,19.7v37.24c0,10.89-4.95,17.25-14.89,19.12l21.41,49.57h-25.28l-19.58-48.97h-7.73Zm0-59.14v42.21h16.91c2.18,0,3.66-.37,4.5-1.1.81-.74,1.21-2.16,1.21-4.29v-31.43c0-2.13-.4-3.55-1.21-4.29-.81-.74-2.32-1.1-4.5-1.1h-16.91Z"/>
        <path class="cls-7" d="m1686.39,273.28l-4.9-26.09h-28.14l-4.5,26.09h-23.43l25.88-125.6h31.59l27.11,125.6h-23.61Zm-29.94-43.42h21.81l-11.2-60.12-10.61,60.12Z"/>
      </g>
    </g>
    <rect class="cls-1" x="91" y="87" width="246" height="246"/>
    <text class="cls-4" transform="translate(129.59 272.3)"><tspan x="0" y="0" xml:space="preserve">He  lium for</tspan></text>
  </g>
</svg>