<?xml version="1.0" encoding="UTF-8"?>
<svg xmlns="http://www.w3.org/2000/svg" viewBox="0 0 400 400">
  <defs>
    <style>
      .cls-1 {
        fill: #fff;
      }

      .cls-2 {
        stroke: #fff;
      }

      .cls-2, .cls-3 {
        fill: none;
        stroke-miterlimit: 10;
        stroke-width: 20px;
      }

      .cls-3 {
        stroke: #ed1c24;
      }
    </style>
  </defs>
  <g id="Layer_2" data-name="Layer 2">
    <rect class="cls-3" x="77" y="77" width="246" height="246" transform="translate(-82.84 200) rotate(-45)"/>
  </g>
  <g id="Layer_4" data-name="Layer 4">
    <rect class="cls-2" x="77" y="77" width="246" height="246"/>
    <g>
      <path class="cls-1" d="m174.19,136.1h23v126.2h-23v-53.8h-26v53.8h-23v-126.2h23v54.8h26v-54.8Z"/>
      <path class="cls-1" d="m236.19,164.1h21.2c14.4,0,21.6,6.6,21.6,19.8v35.8h-42.6v20.2c0,2.13.37,3.57,1.1,4.3.73.73,2.23,1.1,4.5,1.1h9.2c2.13,0,3.6-.37,4.4-1.1.8-.73,1.2-2.17,1.2-4.3v-7.4h22v10c0,13.2-7.27,19.8-21.8,19.8h-20.8c-14.53,0-21.8-6.6-21.8-19.8v-58.6c0-13.2,7.27-19.8,21.8-19.8Zm.2,41h20.8v-18.8c0-2.13-.4-3.57-1.2-4.3-.8-.73-2.27-1.1-4.4-1.1h-9.6c-2.13,0-3.6.37-4.4,1.1-.8.73-1.2,2.17-1.2,4.3v18.8Z"/>
    </g>
  </g>
</svg>