<svg width="246" height="84" viewBox="0 0 246 84" fill="none" xmlns="http://www.w3.org/2000/svg">
<g clip-path="url(#clip0_5273_22181)">
<path d="M80.2308 28.622C82.6183 21.0456 81.165 5.99647 76.4939 0.495759C75.871 -0.23075 74.7292 -0.126963 74.2102 0.703332L68.3972 9.7328C66.9439 11.4972 64.3489 12.0161 62.4804 10.6669C56.2522 6.5154 48.6745 4.1283 40.6817 4.1283C32.585 4.1283 25.1111 6.5154 18.8829 10.6669C16.9107 11.9123 14.4194 11.4972 12.9661 9.7328L7.15313 0.599546C6.63411 -0.126963 5.49227 -0.23075 4.86945 0.495759C0.198296 5.99647 -1.25495 21.0456 1.13253 28.622C1.96296 31.1129 2.17056 33.8114 1.65154 36.3022C1.13253 38.8969 0.717313 41.9067 0.717313 44.0863C0.717313 66.1929 18.6753 84.0442 40.6817 84.0442C62.688 84.0442 80.646 66.1929 80.646 44.0863C80.646 41.9067 80.127 38.8969 79.7118 36.3022C79.1928 33.7076 79.4004 31.1129 80.2308 28.622ZM40.6817 75.1186C23.6579 75.1186 9.74822 61.2111 9.74822 44.1901C9.74822 43.6711 9.74822 43.0484 9.74822 42.5295C10.371 30.9053 17.4297 20.9418 27.3948 16.2714C31.4431 14.4032 35.9067 13.2616 40.5779 13.2616C45.249 13.2616 49.8164 14.2994 53.7609 16.2714C63.726 21.0456 70.7847 30.9053 71.4075 42.5295C71.4075 43.0484 71.4075 43.6711 71.4075 44.1901C71.6151 61.2111 57.7054 75.1186 40.6817 75.1186Z" fill="#1EB4D4"/>
<path d="M54.0724 56.1257L46.1834 42.4258L39.4362 31.0092C39.2285 30.6979 39.0209 30.5941 38.7095 30.5941H32.1699C31.8585 30.5941 31.5471 30.8017 31.4433 31.0092C31.2357 31.3206 31.3395 31.632 31.4433 31.9433L37.8791 42.8409L29.1596 56.0219C28.952 56.3332 28.952 56.6446 29.1596 56.956C29.2634 57.2673 29.5748 57.3711 29.99 57.3711H36.5297C36.8411 57.3711 37.1525 57.2673 37.2563 56.956L41.9274 49.5871L46.1834 56.8522C46.391 57.1635 46.5986 57.2673 46.91 57.2673H53.3458C53.6572 57.2673 53.9686 57.0598 54.0724 56.8522C54.28 56.7484 54.28 56.3332 54.0724 56.1257Z" fill="#1EB4D4"/>
<path d="M99.0926 27.1691H97.2241V14.507H102.207C103.556 14.507 104.698 14.8184 105.425 15.5449C106.151 16.2714 106.566 17.3093 106.566 18.6585C106.566 19.904 106.151 20.8381 105.425 21.5646C104.594 22.2911 103.556 22.6024 102.207 22.6024H99.0926V27.1691ZM101.999 16.0639H99.0926V21.1494H101.999C102.933 21.1494 103.66 20.9418 104.179 20.5267C104.698 20.1115 104.906 19.4888 104.906 18.6585C104.906 17.7244 104.698 17.1017 104.179 16.6866C103.66 16.2714 102.933 16.0639 101.999 16.0639Z" fill="#1B2738"/>
<path d="M112.172 27.3762C110.615 27.3762 109.473 26.961 108.746 26.0269C108.02 25.0929 107.604 24.055 107.604 22.602C107.604 21.2527 107.916 20.1111 108.746 19.177C109.473 18.2429 110.615 17.8278 112.172 17.8278C113.625 17.8278 114.767 18.2429 115.494 19.0732C116.22 19.9035 116.635 21.0452 116.635 22.4982C116.635 23.4323 116.428 24.1588 116.116 24.8853C115.805 25.6118 115.286 26.1307 114.663 26.5459C114.04 27.1686 113.21 27.3762 112.172 27.3762ZM112.172 25.8194C112.898 25.8194 113.417 25.6118 113.833 25.3004C114.248 24.9891 114.456 24.5739 114.663 24.055C114.767 23.5361 114.871 23.0171 114.871 22.602C114.871 22.1868 114.767 21.5641 114.663 21.149C114.559 20.63 114.248 20.2149 113.833 19.9035C113.417 19.5922 112.898 19.3846 112.172 19.3846C111.445 19.3846 110.822 19.5922 110.511 19.9035C110.096 20.2149 109.888 20.63 109.681 21.149C109.473 21.6679 109.473 22.1868 109.473 22.602C109.473 23.0171 109.577 23.6398 109.681 24.055C109.784 24.5739 110.096 24.9891 110.511 25.3004C110.822 25.6118 111.445 25.8194 112.172 25.8194Z" fill="#1B2738"/>
<path d="M119.957 27.169L117.673 18.4509V17.9319H119.542L121.306 25.6122L123.486 17.9319H125.147L127.327 25.6122L129.092 17.9319H130.96V18.4509L128.677 27.169H126.081L124.421 21.2531V21.1493L122.76 27.169H119.957Z" fill="#1B2738"/>
<path d="M136.462 27.3765C135.424 27.3765 134.593 27.169 133.867 26.65C133.244 26.2349 132.725 25.6122 132.414 24.8857C132.102 24.1591 131.895 23.4326 131.895 22.6023C131.895 21.6683 131.998 20.9418 132.414 20.2152C132.829 19.4887 133.244 18.9698 133.971 18.5547C134.593 18.1395 135.424 17.9319 136.358 17.9319C137.189 17.9319 137.915 18.1395 138.538 18.4509C139.161 18.7622 139.68 19.2812 140.095 19.9039C140.51 20.5266 140.718 21.2531 140.718 22.1872C140.718 22.1872 140.718 22.3948 140.718 22.7061H133.763C133.763 23.744 133.971 24.4705 134.49 24.9894C135.009 25.5084 135.631 25.8197 136.462 25.8197C137.085 25.8197 137.604 25.6122 138.123 25.3008C138.538 24.9894 138.849 24.5743 138.953 24.0554H140.822C140.718 24.9894 140.303 25.8197 139.472 26.4425C138.642 27.0652 137.604 27.3765 136.462 27.3765ZM133.763 21.8758H138.746C138.746 21.6683 138.642 21.4607 138.642 21.2531C138.538 20.9418 138.434 20.7342 138.227 20.4228C138.019 20.1115 137.811 19.9039 137.5 19.8001C137.189 19.6963 136.773 19.4887 136.254 19.4887C135.631 19.4887 135.112 19.5925 134.801 19.9039C134.49 20.2152 134.178 20.5266 133.971 20.838C133.867 21.1493 133.867 21.4607 133.763 21.8758Z" fill="#1B2738"/>
<path d="M142.69 27.169V17.9319H144.455L144.662 20.4228C144.766 20.0077 144.974 19.5925 145.181 19.2812C145.493 18.866 145.804 18.5547 146.323 18.3471C146.842 18.1395 147.361 17.9319 148.088 17.9319H148.503V20.0077H148.088C147.153 20.0077 146.427 20.1115 146.012 20.319C145.493 20.5266 145.181 20.9418 144.974 21.3569C144.766 21.772 144.662 22.3948 144.662 23.0175V27.169H142.69Z" fill="#1B2738"/>
<path d="M153.797 27.3765C152.759 27.3765 151.928 27.169 151.202 26.65C150.579 26.2349 150.06 25.6122 149.749 24.8857C149.437 24.1591 149.229 23.4326 149.229 22.6023C149.229 21.6683 149.333 20.9418 149.749 20.2152C150.164 19.4887 150.579 18.9698 151.306 18.5547C151.928 18.1395 152.759 17.9319 153.693 17.9319C154.523 17.9319 155.25 18.1395 155.873 18.4509C156.496 18.7622 157.015 19.2812 157.43 19.9039C157.845 20.5266 158.053 21.2531 158.053 22.1872C158.053 22.1872 158.053 22.3948 158.053 22.7061H151.098C151.098 23.744 151.306 24.4705 151.825 24.9894C152.344 25.5084 152.966 25.8197 153.797 25.8197C154.42 25.8197 154.939 25.6122 155.458 25.3008C155.873 24.9894 156.184 24.5743 156.288 24.0554H158.157C158.053 24.9894 157.638 25.8197 156.807 26.4425C155.977 27.0652 155.042 27.3765 153.797 27.3765ZM151.202 21.8758H156.184C156.184 21.6683 156.081 21.4607 156.081 21.2531C155.977 20.9418 155.873 20.7342 155.665 20.4228C155.458 20.1115 155.25 19.9039 154.939 19.8001C154.627 19.6963 154.212 19.4887 153.693 19.4887C153.07 19.4887 152.551 19.5925 152.24 19.9039C151.928 20.2152 151.617 20.5266 151.409 20.838C151.306 21.1493 151.202 21.4607 151.202 21.8758Z" fill="#1B2738"/>
<path d="M163.97 27.3764C162.62 27.3764 161.582 26.9612 160.96 26.0272C160.337 25.1969 160.025 24.0552 160.025 22.706C160.025 21.253 160.337 20.1113 160.96 19.281C161.582 18.4507 162.62 17.9318 163.97 17.9318C164.593 17.9318 165.112 18.0356 165.527 18.2431C165.942 18.4507 166.254 18.6583 166.461 18.9696C166.669 19.281 166.876 19.4886 166.98 19.6962C167.084 19.9037 167.188 20.1113 167.188 20.1113V14.5068H169.056V27.1688H167.395L167.084 25.3006C167.084 25.4044 166.98 25.5082 166.876 25.7158C166.773 25.9234 166.565 26.1309 166.357 26.4423C166.15 26.6499 165.735 26.9612 165.423 27.065C165.008 27.2726 164.489 27.3764 163.97 27.3764ZM164.489 25.7158C165.319 25.7158 166.046 25.4044 166.461 24.8855C166.876 24.3666 167.188 23.5363 167.188 22.6022C167.188 21.6681 166.98 20.9416 166.565 20.4227C166.15 19.9037 165.423 19.5924 164.593 19.5924C163.97 19.5924 163.451 19.6962 163.036 20.0075C162.62 20.3189 162.309 20.6302 162.205 21.1492C161.998 21.5643 161.998 22.0833 161.998 22.6022C161.998 23.1211 162.101 23.6401 162.205 24.0552C162.413 24.5741 162.62 24.8855 163.036 25.1969C163.451 25.5082 163.866 25.7158 164.489 25.7158Z" fill="#1B2738"/>
<path d="M181.512 27.3764C180.993 27.3764 180.474 27.2726 180.059 27.065C179.644 26.8575 179.333 26.6499 179.021 26.4423C178.71 26.2347 178.606 25.9234 178.502 25.7158C178.398 25.5082 178.295 25.4044 178.295 25.3006L177.983 27.1688H176.322V14.5068H178.191V20.1113C178.191 20.0075 178.295 19.9037 178.398 19.6962C178.502 19.4886 178.71 19.1772 178.917 18.9696C179.125 18.6583 179.436 18.4507 179.852 18.2431C180.267 18.0356 180.786 17.9318 181.409 17.9318C182.758 17.9318 183.692 18.3469 184.419 19.281C185.042 20.2151 185.353 21.3567 185.353 22.706C185.353 24.0552 185.042 25.1969 184.419 26.1309C183.9 26.9612 182.862 27.3764 181.512 27.3764ZM180.993 25.7158C181.616 25.7158 182.135 25.612 182.55 25.3006C182.966 24.9893 183.173 24.5741 183.381 24.159C183.589 23.6401 183.589 23.2249 183.589 22.706C183.589 22.187 183.485 21.6681 183.381 21.253C183.277 20.8378 182.966 20.4227 182.55 20.1113C182.135 19.7999 181.616 19.6962 180.993 19.6962C180.163 19.6962 179.436 20.0075 179.021 20.5264C178.606 21.0454 178.398 21.7719 178.398 22.706C178.398 23.6401 178.606 24.3666 179.125 24.9893C179.436 25.5082 180.163 25.7158 180.993 25.7158Z" fill="#1B2738"/>
<path d="M186.184 31.3204V29.8674H187.533C187.844 29.8674 188.156 29.7636 188.363 29.6599C188.571 29.5561 188.779 29.1409 189.09 28.5182L189.921 26.7538L186.287 17.9319H188.26L190.855 24.8857L193.657 17.9319H195.63L190.855 28.7258C190.543 29.4523 190.232 30.075 189.921 30.3864C189.609 30.8015 189.402 31.0091 188.986 31.1129C188.571 31.2167 188.26 31.3204 187.741 31.3204H186.184Z" fill="#1B2738"/>
<path d="M111.06 36.3022H117.911V73.6655H111.06V57.7861H103.379V73.6655H96.5278V36.3022H103.379V52.493H111.06V36.3022Z" fill="#1B2738"/>
<path d="M138.88 73.6653L137.426 65.8813H129.226L127.876 73.6653H121.025L128.499 36.302H137.634L145.523 73.6653H138.88ZM130.16 60.7957H136.492L133.274 42.9444L130.16 60.7957Z" fill="#1B2738"/>
<path d="M160.886 66.9193V58.9277C160.886 58.305 160.782 57.8898 160.574 57.6823C160.367 57.4747 159.952 57.3709 159.225 57.3709H154.45C150.402 57.3709 148.326 55.3989 148.326 51.455V42.3218C148.326 38.3779 150.506 36.4059 154.762 36.4059H161.301C165.557 36.4059 167.737 38.3779 167.737 42.3218V47.5111H160.886V43.2559C160.886 42.6331 160.782 42.218 160.574 42.0104C160.367 41.8029 159.952 41.6991 159.225 41.6991H156.941C156.319 41.6991 155.8 41.8029 155.592 42.0104C155.384 42.218 155.281 42.6331 155.281 43.2559V50.7285C155.281 51.3513 155.384 51.7664 155.592 51.974C155.8 52.1815 156.319 52.2853 156.941 52.2853H161.613C165.765 52.2853 167.841 54.2573 167.841 58.0974V67.8534C167.841 71.7973 165.661 73.7692 161.405 73.7692H154.969C150.713 73.7692 148.533 71.7973 148.533 67.8534V62.664H155.384V66.9193C155.384 67.542 155.488 67.9572 155.696 68.1647C155.903 68.3723 156.422 68.4761 157.045 68.4761H159.329C159.952 68.4761 160.367 68.3723 160.678 68.1647C160.782 67.9572 160.886 67.542 160.886 66.9193Z" fill="#1B2738"/>
<path d="M186.007 36.302H192.858V67.8532C192.858 71.7971 190.678 73.7691 186.422 73.7691H179.156C174.9 73.7691 172.72 71.7971 172.72 67.8532V36.302H179.571V66.9191C179.571 67.5419 179.675 67.957 179.882 68.1646C180.09 68.3722 180.505 68.4759 181.232 68.4759H184.346C184.969 68.4759 185.488 68.3722 185.695 68.1646C185.903 67.957 186.007 67.5419 186.007 66.9191V36.302Z" fill="#1B2738"/>
<path d="M205.21 59.1351V73.6653H198.359V36.302H212.061C216.317 36.302 218.497 38.2739 218.497 42.2178V53.323C218.497 56.5404 217.044 58.4086 214.137 59.0313L220.365 73.7691H212.995L207.286 59.2389H205.21V59.1351ZM205.21 41.4913V54.0496H210.089C210.711 54.0496 211.127 53.9458 211.438 53.7382C211.646 53.5306 211.75 53.1155 211.75 52.4927V43.1519C211.75 42.5292 211.646 42.1141 211.438 41.9065C211.231 41.6989 210.815 41.5951 210.089 41.5951H205.21V41.4913Z" fill="#1B2738"/>
<path d="M239.258 73.6653L237.804 65.8813H229.604L228.358 73.6653H221.507L228.981 36.302H238.116L246.005 73.6653H239.258ZM230.538 60.7957H236.87L233.652 42.9444L230.538 60.7957Z" fill="#1B2738"/>
</g>
<defs>
<clipPath id="clip0_5273_22181">
<rect width="246" height="84" fill="white"/>
</clipPath>
</defs>
</svg>
